<?xml version="1.0" standalone="no"?>
<!DOCTYPE svg PUBLIC "-//W3C//DTD SVG 20010904//EN"
 "http://www.w3.org/TR/2001/REC-SVG-20010904/DTD/svg10.dtd">
<svg version="1.0" xmlns="http://www.w3.org/2000/svg"
 width="16.000000pt" height="16.000000pt" viewBox="0 0 16.000000 16.000000"
 preserveAspectRatio="xMidYMid meet">
<metadata>
Created by potrace 1.11, written by Peter Selinger 2001-2013
</metadata>
<g transform="translate(0.000000,16.000000) scale(0.001739,-0.001739)"
fill="#000000" stroke="none">
<path d="M2646 6509 c-418 -40 -754 -196 -1041 -483 -157 -157 -242 -274 -335
-461 -154 -309 -221 -622 -221 -1036 0 -213 11 -337 47 -522 111 -566 452
-1049 901 -1278 216 -110 410 -153 688 -153 164 -1 202 2 277 21 303 77 520
271 645 577 34 85 31 98 74 -256 l32 -268 284 0 283 0 0 975 0 975 -760 0
-760 0 0 -219 0 -218 83 -6 c45 -4 148 -7 228 -7 80 0 235 -3 344 -7 l198 -6
-6 -116 c-16 -324 -173 -583 -437 -721 -122 -63 -202 -82 -375 -87 -167 -5
-243 6 -361 53 -269 106 -478 369 -577 724 -45 160 -58 255 -64 465 -10 354
35 601 152 841 142 293 374 500 635 569 101 26 278 31 379 10 221 -45 412
-178 566 -392 32 -46 63 -83 69 -83 20 0 675 153 687 161 8 5 -6 43 -48 126
-179 359 -402 579 -716 708 -109 44 -242 80 -372 99 -132 20 -375 27 -499 15z"/>
<path d="M6430 6514 c-292 -20 -504 -70 -694 -166 -222 -111 -380 -263 -470
-451 -73 -154 -99 -314 -84 -518 9 -126 37 -229 90 -339 35 -71 58 -101 142
-185 194 -193 335 -268 1019 -539 285 -114 548 -221 585 -240 180 -91 261
-194 282 -359 24 -195 -50 -317 -253 -417 -159 -78 -196 -85 -447 -84 -199 1
-222 3 -315 27 -305 81 -466 252 -493 524 l-7 68 -337 3 -338 2 0 -52 c0 -83
27 -234 61 -341 62 -196 156 -345 307 -489 294 -279 673 -401 1201 -385 217 6
351 24 518 67 459 119 765 407 850 801 13 63 18 126 17 249 0 177 -16 264 -71
389 -83 187 -255 359 -499 497 -134 76 -197 103 -736 313 -267 104 -520 206
-560 225 -186 91 -268 202 -268 363 0 176 135 318 367 385 69 20 99 23 268 22
178 0 196 -2 280 -28 109 -33 166 -63 235 -124 71 -62 121 -142 155 -246 l28
-86 340 0 339 0 -7 58 c-16 135 -68 308 -128 427 -69 138 -196 288 -326 384
-115 86 -316 172 -481 205 -151 30 -425 50 -570 40z"/>
</g>
</svg>
