<?xml version="1.0" standalone="no"?>
<!DOCTYPE svg PUBLIC "-//W3C//DTD SVG 20010904//EN"
 "http://www.w3.org/TR/2001/REC-SVG-20010904/DTD/svg10.dtd">
<svg version="1.0" xmlns="http://www.w3.org/2000/svg"
 width="1708.000000pt" height="1708.000000pt" viewBox="0 0 1708.000000 1708.000000"
 preserveAspectRatio="xMidYMid meet">
<metadata>
Created by potrace 1.11, written by Peter Selinger 2001-2013
</metadata>
<g transform="translate(0.000000,1708.000000) scale(0.100000,-0.100000)"
fill="#000000" stroke="none">
<path d="M0 8540 l0 -8540 8540 0 8540 0 0 8540 0 8540 -8540 0 -8540 0 0
-8540z m4675 -690 c521 -69 944 -263 1287 -589 250 -238 411 -498 507 -818 19
-65 61 -252 61 -274 0 -5 -224 -9 -523 -9 l-524 0 -37 99 c-149 394 -466 652
-890 726 -116 20 -347 20 -474 -1 -472 -75 -820 -396 -985 -909 -38 -117 -67
-250 -89 -400 -21 -145 -17 -650 6 -800 64 -420 200 -728 429 -970 170 -181
373 -294 627 -350 99 -22 361 -31 482 -16 315 37 597 184 772 403 140 174 210
367 231 641 l6 77 -551 0 -550 0 0 385 0 385 1060 0 1060 0 0 -327 c0 -357
-10 -543 -40 -728 -82 -510 -309 -934 -658 -1226 -306 -255 -641 -396 -1107
-466 -171 -25 -687 -25 -860 0 -288 43 -512 110 -740 222 -349 171 -607 399
-829 730 -176 262 -312 619 -375 985 -40 227 -46 318 -46 655 0 403 20 587 95
886 220 871 845 1480 1690 1649 126 25 197 35 385 54 71 7 498 -3 580 -14z
m4762 5 c423 -40 769 -162 1045 -368 352 -262 534 -597 573 -1055 l6 -72 -492
2 -493 3 -12 70 c-25 147 -87 259 -200 365 -120 112 -261 180 -455 221 -148
31 -400 30 -549 -1 -188 -39 -326 -107 -435 -214 -100 -99 -150 -205 -161
-341 -18 -212 87 -377 312 -492 183 -94 338 -139 829 -243 375 -79 552 -122
700 -172 698 -235 1014 -613 1042 -1243 12 -275 -37 -518 -152 -750 -216 -437
-701 -754 -1315 -860 -334 -58 -804 -60 -1124 -5 -556 96 -985 344 -1233 715
-125 186 -205 437 -226 703 l-4 52 508 0 509 0 0 -26 c0 -36 43 -160 76 -219
58 -102 209 -237 341 -304 182 -92 372 -132 622 -132 297 0 518 59 696 186
170 122 255 273 255 454 0 288 -202 473 -654 600 -60 17 -285 69 -500 116
-470 103 -555 124 -711 177 -490 165 -821 455 -951 829 -51 149 -65 234 -71
429 -9 286 27 463 137 685 243 491 791 820 1480 890 173 18 427 18 607 0z"/>
</g>
</svg>
