<?xml version="1.0" standalone="no"?>
<!DOCTYPE svg PUBLIC "-//W3C//DTD SVG 20010904//EN"
 "http://www.w3.org/TR/2001/REC-SVG-20010904/DTD/svg10.dtd">
<svg version="1.0" xmlns="http://www.w3.org/2000/svg"
 width="755.000000pt" height="755.000000pt" viewBox="0 0 755.000000 755.000000"
 preserveAspectRatio="xMidYMid meet">
<metadata>
Created by potrace 1.11, written by Peter Selinger 2001-2013
</metadata>
<g transform="translate(0.000000,755.000000) scale(0.100000,-0.100000)"
fill="#000000" stroke="none">
<path d="M1795 5589 c-209 -22 -425 -84 -603 -173 -192 -96 -291 -166 -435
-305 -309 -298 -495 -693 -564 -1191 -19 -140 -21 -464 -4 -605 50 -412 190
-755 432 -1055 157 -195 351 -342 596 -454 256 -117 490 -166 791 -166 292 0
543 69 747 205 83 55 232 192 292 268 l30 38 37 -188 c20 -103 39 -200 42
-216 l6 -27 264 0 264 0 0 1025 0 1025 -795 0 -795 0 0 -310 0 -310 420 0 419
0 -6 -52 c-12 -106 -53 -244 -105 -347 -85 -172 -227 -298 -409 -361 -257 -89
-611 -75 -824 33 -299 150 -486 431 -561 842 -22 118 -30 443 -15 572 83 706
467 1088 1065 1060 313 -14 541 -153 673 -410 27 -51 47 -106 79 -214 3 -10
91 -13 400 -13 l396 0 -7 58 c-20 173 -66 319 -150 480 -223 429 -659 715
-1200 787 -118 16 -349 18 -480 4z"/>
<path d="M5495 5594 c-324 -45 -506 -102 -701 -219 -198 -120 -341 -271 -439
-465 -116 -228 -128 -598 -27 -837 88 -211 266 -386 517 -508 168 -82 355
-141 850 -269 160 -41 331 -89 380 -106 248 -88 390 -203 426 -345 16 -65 6
-198 -20 -258 -43 -100 -166 -200 -306 -250 -122 -43 -195 -52 -405 -51 -178
1 -204 3 -295 27 -327 87 -509 285 -533 581 l-7 81 -404 3 -404 2 6 -117 c14
-293 110 -528 300 -741 217 -241 506 -383 937 -459 163 -28 627 -26 801 5 672
116 1076 487 1139 1047 29 255 -19 489 -136 666 -64 98 -220 253 -319 318
-180 118 -297 161 -735 271 -707 177 -857 227 -965 322 -56 49 -71 77 -86 161
-14 78 -2 173 31 242 54 112 200 210 359 241 101 20 356 15 461 -9 266 -61
414 -209 451 -450 7 -40 13 -78 15 -84 3 -10 92 -13 404 -13 l400 0 0 54 c0
263 -113 549 -294 745 -70 75 -217 181 -337 241 -132 67 -325 124 -524 155
-95 15 -473 28 -540 19z"/>
</g>
</svg>
